<svg width="22" height="18" viewBox="0 0 22 18" fill="none" xmlns="http://www.w3.org/2000/svg">
<path id="Campaign Icon" d="M11 16.9737C10.4485 17.5656 9.6668 17.9349 8.8 17.9349H1.925C0.86185 17.9349 0 17.0618 0 15.9846V2.05391C0 0.976785 0.86185 0.103607 1.925 0.103607H8.8C9.6668 0.103607 10.4485 0.472994 11 1.06486C11.5515 0.472994 12.3332 0.103607 13.2 0.103607H20.075C21.1381 0.103607 22 0.976785 22 2.05391V15.9846C22 17.0618 21.1381 17.9349 20.075 17.9349H13.2C12.3332 17.9349 11.5515 17.5656 11 16.9737ZM1.65 2.05391V15.9846C1.65 16.1385 1.77312 16.2632 1.925 16.2632H8.8C9.55944 16.2632 10.175 15.6396 10.175 14.8702V3.16837C10.175 2.39899 9.55944 1.77529 8.8 1.77529H1.925C1.77312 1.77529 1.65 1.90004 1.65 2.05391ZM11.825 14.8702C11.825 15.6396 12.4406 16.2632 13.2 16.2632H20.075C20.2269 16.2632 20.35 16.1385 20.35 15.9846V2.05391C20.35 1.90004 20.2269 1.77529 20.075 1.77529H13.2C12.4406 1.77529 11.825 2.39899 11.825 3.16837V14.8702Z" fill="white"/>
</svg>
