<svg width="23" height="23" viewBox="0 0 23 23" fill="none" xmlns="http://www.w3.org/2000/svg">
<path id="Dashboard Icon" d="M10.7939 14.2823C10.7939 13.0553 9.79921 12.0606 8.57225 12.0606H6.03317C4.80616 12.0606 3.81147 13.0553 3.81147 14.2823V16.8214C3.81147 18.0484 4.80616 19.0431 6.03317 19.0431H8.57225C9.79921 19.0431 10.7939 18.0484 10.7939 16.8214V14.2823ZM6.03317 13.965H8.57225C8.74754 13.965 8.88959 14.107 8.88959 14.2823V16.8214C8.88959 16.9968 8.74754 17.1388 8.57225 17.1388H6.03317C5.85788 17.1388 5.71578 16.9968 5.71578 16.8214V14.2823C5.71578 14.107 5.85788 13.965 6.03317 13.965ZM19.0427 14.2823C19.0427 13.0553 18.0481 12.0606 16.821 12.0606H14.282C13.055 12.0606 12.0603 13.0553 12.0603 14.2823V16.8214C12.0603 18.0484 13.055 19.0431 14.282 19.0431H16.821C18.0481 19.0431 19.0427 18.0484 19.0427 16.8214V14.2823ZM14.282 13.965H16.821C16.9964 13.965 17.1384 14.107 17.1384 14.2823V16.8214C17.1384 16.9968 16.9964 17.1388 16.821 17.1388H14.282C14.1066 17.1388 13.9646 16.9968 13.9646 16.8214V14.2823C13.9646 14.107 14.1066 13.965 14.282 13.965ZM10.7924 6.03032C10.7924 4.80331 9.79769 3.80863 8.57065 3.80863H6.03157C4.80456 3.80863 3.80987 4.80331 3.80987 6.03032V8.56941C3.80987 9.79642 4.80456 10.7911 6.03157 10.7911H8.57065C9.79769 10.7911 10.7924 9.79642 10.7924 8.56941V6.03032ZM6.03157 5.71294H8.57065C8.74594 5.71294 8.88806 5.85504 8.88806 6.03032V8.56941C8.88806 8.74469 8.74594 8.88679 8.57065 8.88679H6.03157C5.85628 8.88679 5.71418 8.74469 5.71418 8.56941V6.03032C5.71418 5.85504 5.85628 5.71294 6.03157 5.71294ZM19.0411 6.03032C19.0411 4.80331 18.0464 3.80863 16.8194 3.80863H14.2803C13.0533 3.80863 12.0586 4.80331 12.0586 6.03032V8.56941C12.0586 9.79642 13.0533 10.7911 14.2803 10.7911H16.8194C18.0464 10.7911 19.0411 9.79642 19.0411 8.56941V6.03032ZM14.2803 5.71294H16.8194C16.9947 5.71294 17.1368 5.85504 17.1368 6.03032V8.56941C17.1368 8.74469 16.9947 8.88679 16.8194 8.88679H14.2803C14.1051 8.88679 13.9629 8.74469 13.9629 8.56941V6.03032C13.9629 5.85504 14.1051 5.71294 14.2803 5.71294ZM4.12601 0C1.84727 0 0 1.84727 0 4.12601V18.7257C0 21.0044 1.84727 22.8518 4.12601 22.8518H18.7257C21.0044 22.8518 22.8518 21.0044 22.8518 18.7257V4.12601C22.8518 1.84727 21.0044 0 18.7257 0H4.12601ZM1.90431 4.12601C1.90431 2.899 2.899 1.90431 4.12601 1.90431H18.7257C19.9528 1.90431 20.9474 2.899 20.9474 4.12601V18.7257C20.9474 19.9528 19.9528 20.9474 18.7257 20.9474H4.12601C2.899 20.9474 1.90431 19.9528 1.90431 18.7257V4.12601Z" fill="#C2AC38"/>
</svg>
