<svg width="20" height="20" viewBox="0 0 20 20" fill="none" xmlns="http://www.w3.org/2000/svg">
<path d="M10 0C15.5228 0 20 4.47715 20 10C20 15.5228 15.5228 20 10 20C4.47715 20 0 15.5228 0 10C0 4.47715 4.47715 0 10 0ZM10 5C9.6203 5 9.3065 5.28215 9.2568 5.64823L9.25 5.75V9.25H5.75C5.33579 9.25 5 9.5858 5 10C5 10.3797 5.28215 10.6935 5.64823 10.7432L5.75 10.75H9.25V14.25C9.25 14.6642 9.5858 15 10 15C10.3797 15 10.6935 14.7178 10.7432 14.3518L10.75 14.25V10.75H14.25C14.6642 10.75 15 10.4142 15 10C15 9.6203 14.7178 9.3065 14.3518 9.2568L14.25 9.25H10.75V5.75C10.75 5.33579 10.4142 5 10 5Z" fill="white"/>
</svg>
