<svg width="75" height="68" viewBox="0 0 75 68" fill="none" xmlns="http://www.w3.org/2000/svg">
<path d="M47.8275 26.25C51.4519 26.25 54.39 29.1881 54.39 32.8125V50.6213C54.39 59.943 46.833 67.5 37.5112 67.5C28.1892 67.5 20.6322 59.943 20.6322 50.6213V32.8125C20.6322 29.1881 23.5704 26.25 27.1947 26.25H47.8275ZM47.8275 31.875H27.1947C26.677 31.875 26.2572 32.2946 26.2572 32.8125V50.6213C26.2572 56.8365 31.2956 61.875 37.5112 61.875C43.7265 61.875 48.765 56.8365 48.765 50.6213V32.8125C48.765 32.2946 48.3454 31.875 47.8275 31.875ZM6.5625 26.25L19.2423 26.2465C17.9547 27.8044 17.1159 29.7469 16.9242 31.8758L6.5625 31.875C6.04474 31.875 5.625 32.2946 5.625 32.8125V44.9955C5.625 50.1758 9.8244 54.375 15.0046 54.375C15.7546 54.375 16.484 54.2869 17.1831 54.1207C17.5008 56.0104 18.0809 57.8126 18.8808 59.49C17.6466 59.8237 16.3462 60 15.0046 60C6.71782 60 0 53.2822 0 44.9955V32.8125C0 29.1881 2.93813 26.25 6.5625 26.25ZM55.7801 26.2465L68.4375 26.25C72.0619 26.25 75 29.1881 75 32.8125V45C75 53.2841 68.2841 60 60 60C58.6635 60 57.3675 59.8252 56.1341 59.4971C56.94 57.8164 57.5205 56.0141 57.8437 54.1241C58.5345 54.2887 59.2571 54.375 60 54.375C65.1776 54.375 69.375 50.1776 69.375 45V32.8125C69.375 32.2946 68.9554 31.875 68.4375 31.875L58.098 31.8758C57.9064 29.7469 57.0675 27.8044 55.7801 26.2465ZM37.5 0C43.7134 0 48.75 5.03681 48.75 11.25C48.75 17.4632 43.7134 22.5 37.5 22.5C31.2866 22.5 26.25 17.4632 26.25 11.25C26.25 5.03681 31.2866 0 37.5 0ZM61.875 3.75C67.0526 3.75 71.25 7.94734 71.25 13.125C71.25 18.3027 67.0526 22.5 61.875 22.5C56.6974 22.5 52.5 18.3027 52.5 13.125C52.5 7.94734 56.6974 3.75 61.875 3.75ZM13.125 3.75C18.3027 3.75 22.5 7.94734 22.5 13.125C22.5 18.3027 18.3027 22.5 13.125 22.5C7.94734 22.5 3.75 18.3027 3.75 13.125C3.75 7.94734 7.94734 3.75 13.125 3.75ZM37.5 5.625C34.3935 5.625 31.875 8.14339 31.875 11.25C31.875 14.3566 34.3935 16.875 37.5 16.875C40.6065 16.875 43.125 14.3566 43.125 11.25C43.125 8.14339 40.6065 5.625 37.5 5.625ZM61.875 9.375C59.8039 9.375 58.125 11.054 58.125 13.125C58.125 15.196 59.8039 16.875 61.875 16.875C63.9461 16.875 65.625 15.196 65.625 13.125C65.625 11.054 63.9461 9.375 61.875 9.375ZM13.125 9.375C11.054 9.375 9.375 11.054 9.375 13.125C9.375 15.196 11.054 16.875 13.125 16.875C15.196 16.875 16.875 15.196 16.875 13.125C16.875 11.054 15.196 9.375 13.125 9.375Z" fill="white"/>
</svg>
