<svg width="22" height="22" viewBox="0 0 22 22" fill="none" xmlns="http://www.w3.org/2000/svg">
<path id="Session List Icon" d="M3.0022 22C1.34535 21.9998 0.00217389 20.8921 0.00173382 19.5257L1.01647e-07 4.12427C-0.000426628 2.75763 1.34281 1.64947 2.99998 1.64947L3.99659 1.64852L3.99735 0.82481C3.99735 0.407236 4.37361 0.0621467 4.86179 0.00753327L4.9975 0C5.50383 0 5.92229 0.310294 5.98851 0.712889L5.99765 0.82481L5.99689 1.64852H10.0001L10.0008 0.82481C10.0008 0.407236 10.3771 0.0621467 10.8653 0.00753327L11.0009 0C11.5072 0 11.9257 0.310294 11.992 0.712889L12.0011 0.82481L12.0004 1.64852H15.9983L15.9991 0.82481C15.9991 0.407236 16.3754 0.0621467 16.8635 0.00753327L16.9993 0C17.5056 0 17.9241 0.310294 17.9903 0.712889L17.9994 0.82481L17.9986 1.64852L18.9977 1.64947C20.6545 1.64994 21.9976 2.75744 21.9981 4.12394L22 16.2212C22 16.2866 21.9905 16.3513 21.9724 16.4138L21.9336 16.5169L21.8736 16.6227L21.8464 16.658C21.8082 16.7108 21.761 16.7599 21.707 16.8045L15.6999 21.7584C15.6649 21.7873 15.6272 21.8141 15.5873 21.8384L15.6999 21.7584C15.6568 21.794 15.6101 21.826 15.5606 21.8542L15.4436 21.9115L15.2878 21.9633L15.137 21.9914L15.0654 21.9978L14.9927 22H3.0022ZM18.9974 3.29916H2.98652C2.44045 3.30523 2.0003 3.67217 2.0003 4.12397L2.00203 19.5253C2.00218 19.981 2.45008 20.3504 3.00236 20.3504L13.9913 20.3497L13.9925 17.8709C13.9925 16.5612 15.2263 15.4893 16.7876 15.4022L16.993 15.3965H19.9989L19.9978 4.12435C19.9977 3.66871 19.5498 3.29935 18.9974 3.29916ZM18.584 17.0461H16.993C16.4867 17.0461 16.0682 17.3564 16.002 17.7589L15.9928 17.8709L15.9916 19.184L18.584 17.0461ZM4.99774 15.3965H10.3295C10.8818 15.3965 11.3296 15.7658 11.3296 16.2213C11.3296 16.6388 10.9534 16.9839 10.4652 17.0386L10.3295 17.0461H4.99774C4.44536 17.0461 3.99759 16.6768 3.99759 16.2213C3.99759 15.8037 4.37385 15.4586 4.86203 15.4039L4.99774 15.3965ZM4.99774 10.9975H16.9971C17.5495 10.9975 17.9973 11.3668 17.9973 11.8223C17.9973 12.2399 17.6211 12.585 17.1329 12.6396L16.9971 12.6471H4.99774C4.44536 12.6471 3.99759 12.2778 3.99759 11.8223C3.99759 11.4047 4.37385 11.0596 4.86203 11.0049L4.99774 10.9975ZM4.99774 6.59848H16.9971C17.5495 6.59848 17.9973 6.96777 17.9973 7.42329C17.9973 7.84087 17.6211 8.18596 17.1329 8.24057L16.9971 8.2481H4.99774C4.44536 8.2481 3.99759 7.87882 3.99759 7.42329C3.99759 7.00572 4.37385 6.66063 4.86203 6.60602L4.99774 6.59848Z" fill="white"/>
</svg>
