<svg width="75" height="86" viewBox="0 0 75 86" fill="none" xmlns="http://www.w3.org/2000/svg">
<path d="M52.4977 0C57.4585 0 61.5436 3.74856 62.0755 8.56768L67.5049 8.56579C71.4375 8.56579 74.6625 11.5943 74.9752 15.4461L75 16.0609V28.9096C75 36.3318 69.1907 42.3973 61.8708 42.8071L60.9701 42.832C58.11 51.7841 50.2697 58.5108 40.7073 59.7537L40.7047 66.3849H48.2148C55.637 66.3849 61.7025 72.1946 62.1119 79.5145L62.1342 80.3043V82.4458C62.1342 84.072 60.9255 85.416 59.358 85.6288L58.922 85.6579H16.08C14.4538 85.6579 13.1099 84.4493 12.8972 82.8818L12.8678 82.4458V80.3043C12.8678 72.8821 18.6774 66.8166 25.9974 66.4067L26.7873 66.3849H34.2803L34.2816 59.752C24.7254 58.5048 16.8908 51.7802 14.0319 42.832L13.9194 42.829C6.23196 42.829 0 36.5969 0 28.9096V16.0609C0 11.9214 3.35569 8.56579 7.49507 8.56579L12.9264 8.56768C13.4582 3.74856 17.5435 0 22.5044 0H52.4977ZM48.2148 72.8092H26.7873C23.2335 72.8092 20.2574 75.2826 19.4864 78.6019L19.3681 79.2336H55.634C55.1449 75.815 52.349 73.1407 48.8739 72.8379L48.2148 72.8092ZM52.4977 6.42435H22.5044C20.7303 6.42435 19.2922 7.8625 19.2922 9.63652V35.3275C19.2922 45.3837 27.4445 53.5362 37.5011 53.5362C47.5573 53.5362 55.7098 45.3837 55.7098 35.3275V9.63652C55.7098 7.8625 54.2716 6.42435 52.4977 6.42435ZM67.5049 14.9901H62.1342V36.3314C65.5605 35.8491 68.2433 33.0504 68.547 29.5698L68.5757 28.9096V16.0609C68.5757 15.554 68.2236 15.1294 67.7508 15.0184L67.5049 14.9901ZM12.8678 14.9901H7.49507C6.90373 14.9901 6.42435 15.4695 6.42435 16.0609V28.9096C6.42435 32.6921 9.2263 35.82 12.8678 36.3314V14.9901Z" fill="white"/>
</svg>
