<svg width="22" height="23" viewBox="0 0 22 23" fill="none" xmlns="http://www.w3.org/2000/svg">
<path id="Loot Management Icon" d="M4.67199 16.0926C5.73498 16.0926 6.59671 16.9545 6.59671 18.0176V20.7653C6.59671 21.8284 5.73498 22.6903 4.67199 22.6903H1.92472C0.861725 22.6903 0 21.8284 0 20.7653V18.0176C0 16.9545 0.861725 16.0926 1.92472 16.0926H4.67199ZM4.67199 17.7426H1.92472C1.77287 17.7426 1.64976 17.8658 1.64976 18.0176V20.7653C1.64976 20.9172 1.77287 21.0403 1.92472 21.0403H4.67199C4.82385 21.0403 4.94695 20.9172 4.94695 20.7653V18.0176C4.94695 17.8658 4.82385 17.7426 4.67199 17.7426ZM8.52166 18.2903H21.1751C21.6307 18.2903 22 18.6597 22 19.1153C22 19.533 21.6896 19.8781 21.2871 19.9328L21.1751 19.9403H8.52166C8.0661 19.9403 7.69678 19.5709 7.69678 19.1153C7.69678 18.6976 8.00711 18.3524 8.40973 18.2978L8.52166 18.2903ZM4.67199 8.39146C5.73498 8.39146 6.59671 9.25331 6.59671 10.3165V13.0641C6.59671 14.1272 5.73498 14.9891 4.67199 14.9891H1.92472C0.861725 14.9891 0 14.1272 0 13.0641V10.3165C0 9.25331 0.861725 8.39146 1.92472 8.39146H4.67199ZM4.67199 10.0415H1.92472C1.77287 10.0415 1.64976 10.1646 1.64976 10.3165V13.0641C1.64976 13.216 1.77287 13.3391 1.92472 13.3391H4.67199C4.82385 13.3391 4.94695 13.216 4.94695 13.0641V10.3165C4.94695 10.1646 4.82385 10.0415 4.67199 10.0415ZM8.52166 10.5903H21.1751C21.6307 10.5903 22 10.9597 22 11.4153C22 11.833 21.6896 12.1781 21.2871 12.2328L21.1751 12.2403H8.52166C8.0661 12.2403 7.69678 11.8709 7.69678 11.4153C7.69678 10.9976 8.00711 10.6524 8.40973 10.5978L8.52166 10.5903ZM4.67199 0.690292C5.73498 0.690292 6.59671 1.55214 6.59671 2.61529V5.36296C6.59671 6.4261 5.73498 7.28796 4.67199 7.28796H1.92472C0.861725 7.28796 0 6.4261 0 5.36296V2.61529C0 1.55214 0.861725 0.690292 1.92472 0.690292H4.67199ZM4.67199 2.34029H1.92472C1.77287 2.34029 1.64976 2.46342 1.64976 2.61529V5.36296C1.64976 5.51484 1.77287 5.63796 1.92472 5.63796H4.67199C4.82385 5.63796 4.94695 5.51484 4.94695 5.36296V2.61529C4.94695 2.46342 4.82385 2.34029 4.67199 2.34029ZM8.52166 2.89029H21.1751C21.6307 2.89029 22 3.25966 22 3.71529C22 4.13296 21.6896 4.47813 21.2871 4.53276L21.1751 4.54029H8.52166C8.0661 4.54029 7.69678 4.17092 7.69678 3.71529C7.69678 3.29762 8.00711 2.95245 8.40973 2.89783L8.52166 2.89029Z" fill="white"/>
</svg>
