<svg width="22" height="23" viewBox="0 0 22 23" fill="none" xmlns="http://www.w3.org/2000/svg">
<path id="Quest Icon" d="M12.3319 1.13459C11.787 -0.018096 10.2129 -0.0180845 9.66811 1.13459L7.07399 6.62321L1.27329 7.50335C0.0550643 7.68819 -0.431367 9.25146 0.450148 10.1487L4.64758 14.4209L3.65669 20.4536C3.49243 21.4536 4.25138 22.2663 5.11433 22.2701C5.34523 22.2713 5.58365 22.2148 5.81385 22.0884L11 19.2402L16.1883 22.0884C17.2779 22.6866 18.5514 21.7205 18.3433 20.4536L17.3524 14.4209L21.5499 10.1487C22.4313 9.25146 21.945 7.68819 20.7267 7.50335L14.9261 6.62321L12.3319 1.13459ZM7.70122 19.1043V8.23436C8.05278 8.09786 8.34601 7.82554 8.51544 7.46707L11 2.21031L13.4846 7.46707C13.7009 7.92481 14.1191 8.24206 14.6028 8.31547L20.1585 9.15841L16.1383 13.2503C15.7884 13.6065 15.6286 14.1198 15.7113 14.623L16.6603 20.4007L11.6911 17.6728C11.2584 17.4352 10.7416 17.4352 10.3089 17.6728L7.70122 19.1043Z" fill="white"/>
</svg>
