<svg width="20" height="20" viewBox="0 0 20 20" fill="none" xmlns="http://www.w3.org/2000/svg">
<path d="M17.2146 0C18.4573 0 19.4646 1.00736 19.4646 2.25V7.71196C19.4646 8.5738 19.1223 9.4003 18.513 10.0098L10.012 18.5129C8.74255 19.7798 6.6868 19.7807 5.41564 18.5143L0.953937 14.0592C-0.316533 12.7913 -0.318163 10.7334 0.950157 9.4632L9.44985 0.95334C10.0594 0.34297 10.8866 0 11.7493 0H17.2146ZM14.4646 3.50218C13.6362 3.50218 12.9646 4.17374 12.9646 5.00216C12.9646 5.83057 13.6362 6.50213 14.4646 6.50213C15.293 6.50213 15.9646 5.83057 15.9646 5.00216C15.9646 4.17374 15.293 3.50218 14.4646 3.50218Z" fill="white"/>
</svg>
