<svg width="75" height="71" viewBox="0 0 75 71" fill="none" xmlns="http://www.w3.org/2000/svg">
<path d="M67.4941 11.4854C67.4941 5.14223 62.0382 0 55.3077 0H12.1864C5.45607 0 0 5.14223 0 11.4854V52.1263C0 58.4696 5.45607 63.6117 12.1864 63.6117H30.6165L31.9508 58.5824C31.9748 58.4915 31.9999 58.4011 32.0258 58.3106H12.1864C8.56239 58.3106 5.62452 55.5418 5.62452 52.1263V19.4369H61.8695V29.0933C63.6653 28.42 65.5951 28.1606 67.4941 28.315V11.4854ZM12.1864 5.30098H55.3077C58.9317 5.30098 61.8695 8.06986 61.8695 11.4854V14.1359H5.62452V11.4854C5.62452 8.06986 8.56239 5.30098 12.1864 5.30098ZM60.3691 34.1717L38.2369 55.0308C36.9465 56.2469 36.0312 57.7709 35.5887 59.4394L33.8727 65.909C33.126 68.7226 35.8302 71.2712 38.8155 70.5679L45.6799 68.9502C47.4503 68.5332 49.0673 67.6705 50.3577 66.4543L72.4898 45.5953C75.8367 42.4405 75.8367 37.3261 72.4898 34.1717C69.143 31.0173 63.7163 31.0173 60.3691 34.1717Z" fill="white"/>
</svg>
